solid OpenSCAD_Model
  facet normal -1 0 0
    outer loop
      vertex 0 1.2525 146.01
      vertex 0 3.7575 146.01
      vertex 0 0 0
    endloop
  endfacet
  facet normal -1 0 0
    outer loop
      vertex 0 0 0
      vertex 0 3.7575 146.01
      vertex 0 5.01 0
    endloop
  endfacet
  facet normal 0 0.999963 0.00857786
    outer loop
      vertex 0 3.7575 146.01
      vertex 146.061 5.01 0
      vertex 0 5.01 0
    endloop
  endfacet
  facet normal 0.706983 0 0.70723
    outer loop
      vertex 0 1.2525 146.01
      vertex 146.061 0 0
      vertex 146.061 5.01 0
    endloop
  endfacet
  facet normal 0.706983 0 0.70723
    outer loop
      vertex 0 3.7575 146.01
      vertex 0 1.2525 146.01
      vertex 146.061 5.01 0
    endloop
  endfacet
  facet normal 0 -0.999963 0.00857786
    outer loop
      vertex 0 0 0
      vertex 146.061 0 0
      vertex 0 1.2525 146.01
    endloop
  endfacet
  facet normal 0 0 -1
    outer loop
      vertex 0 5.01 0
      vertex 146.061 5.01 0
      vertex 0 0 0
    endloop
  endfacet
  facet normal 0 0 -1
    outer loop
      vertex 0 0 0
      vertex 146.061 5.01 0
      vertex 146.061 0 0
    endloop
  endfacet
endsolid OpenSCAD_Model
